<svg width="353" height="404" viewBox="0 0 353 404" fill="none" xmlns="http://www.w3.org/2000/svg">
<g clip-path="url(#clip0_517_289)">
<path d="M2 65.639L116.494 0L231 65.9939L116.555 132L2 65.639Z" fill="#303C30"/>
<path d="M0 68L114.951 134.783L115 267L0 200.069V68Z" fill="#303C30"/>
<path d="M0 205L114.951 271.873L115 404L0 337.115V205Z" fill="#303C30"/>
<path d="M232.988 69L119.061 135.008L119 267L233 200.183L232.988 69Z" fill="#303C30"/>
<path d="M238 198L350 133.725L238 70V198Z" fill="#303C30"/>
<path d="M233 337.106L119 404L119.049 271.881L233 205V337.106ZM214 246.207C214 237.401 206.92 234.388 198.179 239.468C198.093 239.517 198.02 239.566 197.935 239.615C197.849 239.664 197.776 239.689 197.69 239.738L162.434 260.24C162.165 260.4 161.896 260.585 161.627 260.745C161.359 260.893 161.09 261.016 160.821 261.176C152.081 266.255 145 277.521 145 286.327V355.793C145 364.599 152.081 367.612 160.821 362.532C161.09 362.372 161.358 362.188 161.627 362.028C161.896 361.881 162.165 361.758 162.434 361.598L197.69 341.095C197.776 341.046 197.849 340.996 197.935 340.947C198.02 340.898 198.093 340.873 198.179 340.824C206.919 335.745 214 324.479 214 315.673V246.207ZM179.513 282.207C181.087 281.297 182.356 281.838 182.356 283.412V315.255C182.356 316.841 181.087 318.858 179.513 319.78C177.938 320.69 176.668 320.149 176.668 318.575V286.733C176.668 285.147 177.938 283.129 179.513 282.207Z" fill="#303C30"/>
<path d="M353 268.406L238 335L238.062 203.447L353 137V268.406ZM334 180.351C334 171.413 326.705 168.349 317.715 173.501C317.334 173.721 316.953 173.977 316.572 174.221C316.192 174.416 315.811 174.6 315.431 174.819L280.661 194.782C280.428 194.916 280.207 195.063 279.974 195.209C279.74 195.331 279.519 195.441 279.285 195.563C270.295 200.728 263 212.157 263 221.106H263.013V291.653C263.013 300.591 270.308 303.656 279.298 298.491C288.288 293.327 295.583 281.898 295.583 272.948V268.455C295.583 266.843 296.897 264.792 298.506 263.864C300.127 262.936 301.429 263.486 301.429 265.098V269.591C301.429 278.723 309.044 281.727 318.304 276.086C327.134 270.714 334 259.286 334 250.507V180.351ZM298.506 216.918C300.127 215.99 301.429 216.54 301.429 218.151V226.905C301.429 228.517 300.115 230.568 298.506 231.496C296.885 232.424 295.583 231.875 295.583 230.264V221.509C295.583 219.897 296.897 217.846 298.506 216.918Z" fill="#303C30"/>
</g>
<defs>
<clipPath id="clip0_517_289">
<rect width="353" height="404" fill="white"/>
</clipPath>
</defs>
</svg>
